<?xml version="1.0" encoding="utf-8"?>
<!-- Generator: Adobe Illustrator 25.2.3, SVG Export Plug-In . SVG Version: 6.00 Build 0)  -->
<svg version="1.1" id="图层_1" xmlns="http://www.w3.org/2000/svg" xmlns:xlink="http://www.w3.org/1999/xlink" x="0px" y="0px"
	 viewBox="0 0 1283 295.35" style="enable-background:new 0 0 1283 295.35;" xml:space="preserve">
<style type="text/css">
	.st0{fill:url(#SVGID_1_);}
	.st1{fill:none;}
	.st2{fill:#FFFFFF;}
	.st3{fill:#F7B00F;}
</style>
<g>
	<linearGradient id="SVGID_1_" gradientUnits="userSpaceOnUse" x1="175.8247" y1="298.3061" x2="61.8122" y2="0.3704">
		<stop  offset="0.029" style="stop-color:#F58400"/>
		<stop  offset="0.744" style="stop-color:#F8E08D"/>
	</linearGradient>
	<path class="st0" d="M235.52,117.1c0,0.74-0.01,1.49-0.02,2.23c-0.01,0.36-0.02,0.73-0.03,1.09c-0.16,5.04-0.69,9.99-1.58,14.76
		c-0.09,0.43-0.17,0.85-0.26,1.27c-1.06,5.01-2.43,9.94-4.19,14.63c-9.18,24.72-28.08,44.62-52.07,55.25l52.07,69.43H31.23V19.59
		h106.78c41.89,0,77.61,26.44,91.42,63.52c1,2.74,1.92,5.56,2.69,8.45c0.08,0.27,0.15,0.54,0.22,0.82c0.26,0.97,0.51,1.96,0.74,2.95
		c0.08,0.37,0.16,0.73,0.24,1.09c0.07,0.34,0.14,0.67,0.21,1.01c0.88,4.21,1.47,8.55,1.76,12.97c0.02,0.36,0.04,0.72,0.07,1.07
		c0,0.02,0,0.04,0,0.06c0.04,0.73,0.08,1.46,0.1,2.2c0.01,0.14,0.01,0.28,0.01,0.43c0.01,0.42,0.02,0.85,0.03,1.27v0.13
		C235.52,116.08,235.52,116.58,235.52,117.1z"/>
	<path class="st1" d="M235.52,117.1c0,0.74-0.01,1.49-0.02,2.23c-0.01,0.36-0.02,0.73-0.03,1.09c-0.19,5.46-0.83,10.81-1.89,16.04
		c-1.02,5.02-2.41,9.91-4.15,14.63c-9.18,24.72-28.08,44.62-52.07,55.25l52.07,69.43H31.23V19.59h106.78
		c41.89,0,77.61,26.44,91.42,63.52c1.02,2.76,1.93,5.58,2.7,8.45c0.34,1.25,0.65,2.5,0.94,3.77c0.08,0.37,0.16,0.73,0.24,1.09
		c0.07,0.34,0.14,0.67,0.21,1.01c0.86,4.23,1.46,8.56,1.76,12.97c0.02,0.36,0.04,0.72,0.07,1.07c0,0.02,0,0.04,0,0.06
		c0.04,0.73,0.08,1.46,0.1,2.2c0.01,0.14,0.01,0.28,0.01,0.43c0.01,0.42,0.02,0.85,0.03,1.27v0.13
		C235.52,116.08,235.52,116.58,235.52,117.1z"/>
	<path class="st2" d="M235.51,115.57v-0.13c-0.01-0.42-0.02-0.85-0.03-1.27c0-0.14-0.01-0.28-0.01-0.43
		c-0.02-0.73-0.05-1.46-0.1-2.2c0-0.02,0-0.04,0-0.06c-0.02-0.36-0.04-0.72-0.07-1.07c-0.29-4.42-0.88-8.76-1.76-12.97
		c-0.07-0.34-0.14-0.68-0.21-1.01c-0.08-0.36-0.16-0.73-0.24-1.09c-0.29-1.27-0.6-2.52-0.94-3.77h-79.95
		c-6.18,0-11.82,2.55-15.81,6.54c-1.55,1.55-2.91,3.36-4,5.36c-1.64,3.18-2.64,6.72-2.64,10.54c0,11.91,9.27,21.63,21,22.36
		c0.45,0.09,1,0.09,1.45,0.09h81.44c0.09-0.43,0.17-0.85,0.26-1.27c0.9-4.77,1.42-9.73,1.58-14.76c0.01-0.36,0.02-0.73,0.03-1.09
		c0.02-0.74,0.02-1.48,0.02-2.23C235.52,116.58,235.52,116.08,235.51,115.57z M154.46,126.64c-0.46,0.18-1,0.18-1.54,0.18
		c-7,0-12.73-5.72-12.73-12.81c0-3.18,1.18-6.09,3.18-8.27c2.27-2.73,5.72-4.45,9.54-4.45c7.09,0,12.72,5.72,12.72,12.72
		C165.64,120.55,160.82,125.91,154.46,126.64z"/>
	<path class="st2" d="M144.74,142.09l-62.07,43.89c-6,4.27-13.45,4.82-19.9,2.27l-6.72,4.82l-2.55-3.64l-5.54,3.91l-2.09-3
		l-14.63,10.55v-5.77l11.99-8.6l-2.55-3.45l5.54-3.91l-2.73-3.91l6.45-4.54c-0.63-7.09,2.36-14.36,8.63-18.72l63.16-44.8
		c1-0.73,2.09-1.36,3.18-1.82c-0.91,2.73-1.36,5.64-1.36,8.63C123.56,127.37,132.56,138.63,144.74,142.09z"/>
	<path class="st1" d="M152.92,101.28c-3.82,0-7.27,1.73-9.54,4.45c-2,2.18-3.18,5.09-3.18,8.27c0,7.09,5.73,12.81,12.72,12.81
		c0.55,0,1.09,0,1.54-0.18c6.36-0.73,11.18-6.09,11.18-12.63C165.64,107.01,160,101.28,152.92,101.28z"/>
</g>
<g>
	<path d="M353.15,123.15l-21.34-36.19h-16.39v36.19h-6.6V42.96h23.43c15.95,0,26.73,5.83,26.73,21.45c0,12.76-7.81,20.13-20.02,22
		l21.67,36.74H353.15z M315.42,81.46h15.29c13.86,0,21.56-5.5,21.56-17.05c0-11.66-7.7-15.95-21.56-15.95h-15.29V81.46z"/>
	<path d="M376.13,82.78c0-25.41,13.86-41.25,33.22-41.25c19.58,0,33.33,15.84,33.33,41.25c0,25.52-13.75,41.8-33.33,41.8
		C389.99,124.58,376.13,108.3,376.13,82.78z M435.86,82.78c0-21.78-10.56-35.31-26.51-35.31c-15.84,0-26.29,13.53-26.29,35.31
		c0,21.78,10.45,35.86,26.29,35.86C425.3,118.64,435.86,104.56,435.86,82.78z"/>
	<path d="M466.55,42.96h22.11c16.17,0,26.73,5.94,26.73,19.47c0,8.25-4.29,15.07-12.32,17.49v0.55
		c10.34,1.76,17.16,8.25,17.16,19.25c0,15.51-11.88,23.43-29.92,23.43h-23.76V42.96z M486.57,77.94c15.84,0,22.22-5.61,22.22-14.74
		c0-10.89-7.37-14.85-21.56-14.85h-14.08v29.59H486.57z M488.77,117.65c15.51,0,24.97-5.5,24.97-17.93c0-11.22-9.02-16.5-24.97-16.5
		h-15.62v34.43H488.77z"/>
	<path d="M537.61,82.78c0-25.41,13.86-41.25,33.22-41.25c19.58,0,33.33,15.84,33.33,41.25c0,25.52-13.75,41.8-33.33,41.8
		C551.47,124.58,537.61,108.3,537.61,82.78z M597.34,82.78c0-21.78-10.56-35.31-26.51-35.31c-15.84,0-26.29,13.53-26.29,35.31
		c0,21.78,10.45,35.86,26.29,35.86C586.78,118.64,597.34,104.56,597.34,82.78z"/>
	<path d="M642.44,48.57h-25.19v-5.61h57.2v5.61h-25.3v74.58h-6.71V48.57z"/>
	<path d="M695.14,42.96h6.6v80.19h-6.6V42.96z"/>
	<path d="M725.49,83c0-25.63,14.19-41.47,34.54-41.47c9.46,0,16.83,4.62,21.12,9.68l-3.74,4.29c-4.29-4.84-10.01-8.03-17.38-8.03
		c-16.94,0-27.61,13.64-27.61,35.31c0,21.89,10.45,35.86,27.28,35.86c8.14,0,14.19-3.41,19.91-9.68l3.74,4.18
		c-6.16,7.15-13.64,11.44-23.98,11.44C739.57,124.58,725.49,108.63,725.49,83z"/>
	<path d="M805.02,42.96h20.79c18.15,0,29.26,5.94,29.26,22.55c0,16.06-11,23.76-28.82,23.76h-14.63v33.88h-6.6V42.96z M824.93,83.77
		c15.84,0,23.43-5.39,23.43-18.26c0-12.98-7.92-17.05-23.87-17.05h-12.87v35.31H824.93z"/>
	<path d="M877.84,42.96h6.6v74.47h36.52v5.72h-43.12V42.96z"/>
	<path d="M937.46,91.8V42.96h6.6v48.51c0,20.9,9.68,27.17,20.79,27.17c11.33,0,21.23-6.27,21.23-27.17V42.96h6.27V91.8
		c0,25.3-13.09,32.78-27.5,32.78C950.44,124.58,937.46,117.1,937.46,91.8z"/>
	<path d="M1013.58,112.59l4.07-4.62c5.83,6.6,14.08,10.67,23.21,10.67c11.88,0,19.25-6.27,19.25-15.4c0-9.68-6.27-12.76-14.19-16.28
		l-11.99-5.28c-7.15-3.19-16.28-8.25-16.28-20.02c0-11.88,10.12-20.13,23.76-20.13c9.68,0,17.6,4.18,22.66,9.68l-3.74,4.29
		c-4.73-4.84-11-8.03-18.92-8.03c-10.23,0-17.05,5.39-17.05,13.64c0,9.13,7.81,12.54,13.64,15.07l11.99,5.28
		c9.13,4.07,16.83,9.13,16.83,21.34c0,12.32-10.23,21.78-25.96,21.78C1029.2,124.58,1019.96,119.74,1013.58,112.59z"/>
	<path d="M1085.41,118.64c0-3.74,2.64-6.05,5.61-6.05s5.61,2.31,5.61,6.05c0,3.63-2.64,5.94-5.61,5.94
		S1085.41,122.27,1085.41,118.64z"/>
	<path class="st3" d="M1158.12,96.2h-31.24l-9.13,26.95h-6.6l28.05-80.19h6.82l28.05,80.19h-7.04L1158.12,96.2z M1156.36,90.92
		l-4.84-14.52c-3.3-9.35-5.94-17.82-8.8-27.5h-0.44c-2.75,9.68-5.5,18.15-8.69,27.5l-4.95,14.52H1156.36z"/>
	<path class="st3" d="M1192,42.96h6.6v80.19h-6.6V42.96z"/>
</g>
<g>
	<path d="M357.63,271.22l-20.04-35.64h-14.28v35.64h-13.92V182.9h28.92c18.24,0,31.92,6.48,31.92,25.56
		c0,13.68-7.32,21.84-18.48,25.32l21.6,37.44H357.63z M323.31,224.42h13.32c12.84,0,19.8-5.28,19.8-15.96
		c0-10.68-6.96-14.4-19.8-14.4h-13.32V224.42z"/>
	<path d="M380.8,238.34c0-22.08,14.76-34.8,31.08-34.8s31.08,12.72,31.08,34.8c0,21.84-14.76,34.44-31.08,34.44
		S380.8,260.18,380.8,238.34z M428.79,238.34c0-14.04-6.48-23.4-16.92-23.4c-10.32,0-16.8,9.36-16.8,23.4
		c0,13.92,6.48,23.16,16.8,23.16C422.31,261.5,428.79,252.26,428.79,238.34z"/>
	<path d="M460.36,182.9h27.36c18.12,0,31.2,5.76,31.2,21.72c0,8.4-4.68,16.44-12.6,19.08v0.6c10.08,2.16,17.4,9,17.4,21
		c0,17.52-14.28,25.92-33.84,25.92h-29.52V182.9z M486.15,219.74c13.44,0,19.08-5.04,19.08-13.32c0-9.24-6.24-12.72-18.72-12.72
		h-12.24v26.04H486.15z M488.31,260.3c13.8,0,21.72-4.92,21.72-15.72c0-9.96-7.68-14.28-21.72-14.28h-14.04v30H488.31z"/>
	<path d="M540.4,182.9h13.92v88.32H540.4V182.9z"/>
	<path d="M577.47,182.9h15.96l16.2,44.64c2.04,5.88,3.84,11.88,5.88,17.88h0.6c2.04-6,3.72-12,5.76-17.88l15.96-44.64h16.08v88.32
		h-12.96v-43.68c0-7.92,1.08-19.32,1.8-27.36h-0.48l-7.08,20.4l-15.36,42.12h-8.64l-15.48-42.12l-6.96-20.4h-0.48
		c0.6,8.04,1.68,19.44,1.68,27.36v43.68h-12.48V182.9z"/>
</g>
</svg>
